# xmcd
#
# Track frame offsets: 
#        150
#        16978
#        35048
#        51515
#        67399
#        84979
#        101051
#        119650
#        142176
#        161860
#        181984
#        200618
#        219746
#        240673
#        256515
#
# Disc length: 3692 seconds
#
# Revision: 0
# Processed by: cddbd v1.5.2PL0 Copyright (c) Steve Scherf et al.
# Submitted via: ExactAudioCopyFreeDBPlugin 1.0
#
DISCID=e90e6a0f
DTITLE=王雅洁 - DTS51小调歌后I
DYEAR=2004
DGENRE=DTS
TTITLE0=笑红尘
TTITLE1=车站
TTITLE2=再会无缘的情人
TTITLE3=一帘幽梦
TTITLE4=请你恰恰
TTITLE5=潇洒的走
TTITLE6=三年
TTITLE7=七月
TTITLE8=久别的人
TTITLE9=流浪的人
TTITLE10=泪的小花
TTITLE11=甘心情愿
TTITLE12=花开花落
TTITLE13=酒醉的探戈
TTITLE14=做你的爱人
EXTD=
EXTT0=
EXTT1=
EXTT2=
EXTT3=
EXTT4=
EXTT5=
EXTT6=
EXTT7=
EXTT8=
EXTT9=
EXTT10=
EXTT11=
EXTT12=
EXTT13=
EXTT14=
PLAYORDER=
